<?xml version="1.0" encoding="utf-8"?>
<!-- Generator: Adobe Illustrator 25.1.0, SVG Export Plug-In . SVG Version: 6.00 Build 0)  -->
<svg version="1.1" id="Layer_1" xmlns="http://www.w3.org/2000/svg" xmlns:xlink="http://www.w3.org/1999/xlink" x="0px"
	y="0px" viewBox="0 0 768.784 661.423" style="enable-background:new 0 0 768.784 661.423;" xml:space="preserve">

	<defs>
		<filter id="page-base-filter-element" x="0" y="0" width="200%" height="200%">
			<feDropShadow dx="1" dy="2" stdDeviation="2" floodColor="#fff" floodOpacity="0.2" />
		</filter>
		<radialGradient id="SVGID_1_" cx="2434.0708" cy="467.2619" r="613.614"
			gradientTransform="matrix(-1 0 0 1 2791.0542 0)" gradientUnits="userSpaceOnUse">
			<stop offset="0" style="stop-color:#FFFFFF" />
			<stop offset="0.5247" style="stop-color:#F9F9F9" />
			<stop offset="1" style="stop-color:#EFEFEF" />
		</radialGradient>
	</defs>


	<g className="page-base">

		<path filter="url(#page-base-filter-element)" fill="url(#SVGID_1_)" d="M46.692,33.14l0.001,576.421h0.452l3.868-0.819l4.038,2.316l3.84-1.158l3.925,0.678l3.812-2.541l3.953,1.158
			l3.868-0.254l3.868-1.101l3.925,0.988l3.925,0.706l3.896-0.452l3.868-1.073l3.925,0.734l3.868-0.734l3.953,0.903l3.811-1.609
			l3.953,0.423l3.981,0.791l3.784-1.638l3.698-0.084l3.67-0.48l3.671,1.581l3.699-0.225l3.699-0.565l3.726-0.537l3.699-0.649
			l3.643-0.057l3.586-0.113l3.615-0.141l3.727,0.056l4.009,0.452l3.275-2.4l3.586-1.609l3.67-1.468l4.122,0.847l3.699-1.383
			l3.755-1.525l4.009,1.779l3.868-1.666l3.925,0.96l3.896,0.282l3.812,1.27l3.896,0.339l4.066-0.677l3.783,1.299l4.095-0.875
			l3.783,1.27l3.755,1.666l3.924,0.424l4.01-1.13l3.896,0.734l3.981,0.395l3.727-2.089l4.207,1.468l3.586-2.146l4.179,0.254
			l3.586-1.92l3.219-2.372l3.614-1.44l3.304-2.202l4.348,0.339l3.134-2.626l3.897-0.762l3.727-1.129l3.642-1.412l2.852-3.388
			l4.376,0.508l3.727-1.13l3.021-3.049l3.558-1.723l3.84-0.847l3.783-1.073l3.925-0.452l4.151,0.649l3.558-1.835l3.925-0.085
			l3.953-0.423l3.84-1.327l4.01-0.056l3.981-0.339l4.009,0.537l3.982-0.48l3.981,0.847l4.037-2.146l3.982,0.452l3.868,0.226
			l3.868-1.186l3.925,1.948l3.642,1.327l3.727,0.254l2.146,2.739l2.541,2.343l3.275,2.316l0.593,4.094l3.896,0.988l3.615,1.13
			l3.953-0.282l3.783,1.751l3.953,0.028l3.953,0.424l3.953-1.384l3.925-0.084l3.981,1.581l3.896-0.847l3.812-1.496l4.461,1.186
			l3.783-1.581l3.275-2.711l3.247-2.541l4.207-0.509l3.643-1.751l3.304-2.372l3.473-2.118l4.236-0.169l3.416-2.005l4.123-0.169
			l3.614-1.581l3.53-1.835l3.698-1.384l3.416-2.061l4.433,0.452l2.993-2.993l3.615-1.553l2.117-2.965l1.44-1.553l0.904-0.96
			l3.839-1.186l0.509-0.678l1.835-2.372l3.784,0.028l3.332-1.412l3.416,1.977l3.501-0.988l3.586-1.214l3.303,2.117l3.84,0.649
			l3.868-0.452l3.925-1.412l3.811,1.44l3.925-0.96l3.839,0.537l3.756,1.44l3.981-1.327l2.569,1.948l1.073,0.819l3.953-0.819
			l3.698,1.779l4.038-1.355l3.952-0.367l3.784,1.045l2.174,1.722l1.327,1.045l3.868,0.169l3.953-0.198l3.981-0.48l3.84,0.537
			l3.558,2.739l4.094-0.254l3.953,0.367l3.84,1.694l4.094-1.44l3.953,1.158l4.038,0.056l3.671-2.485l3.501-0.932l4.291,1.158
			l2.598-3.501l4.122-0.084l2.824-2.711l3.726-0.96l3.36-1.637l3.134-2.146l3.473-1.44l3.981,0.424l2.484-0.452
			c0.226-6.833,6.24-12.254,13.581-12.254c6.946,0,12.621,4.857,13.44,11.153l0.79-0.282l0.282,0.141l1.017-1.355l3.36-0.452
			l3.417,0.283l3.389,1.129l3.303-0.621l3.36-0.311l3.36-0.677l1.186,0.367v-37.355l-2.457,0.932l-3.36-1.27l-3.501-0.424
			l-3.247-1.186l-3.783-0.113l-3.078-2.287l-3.331-1.581l-3.022,0.028c-2.456,3.275-6.522,5.421-11.124,5.421
			c-7.51,0-13.61-5.675-13.61-12.706c0-7.002,6.1-12.706,13.61-12.706c7.51,0,13.609,5.704,13.609,12.706
			c-0.028,0.169,1.722,0.988,1.722,0.988l2.965,0.706l3.529-0.48l2.909,1.101l2.795,1.468l2.71,1.976l3.304,0.113l3.36,0.113
			v-56.809l-2.909-1.779l-3.134-0.424l-3.247,1.694l-3.275-1.807l-2.823,2.089l-3.162,0.339l-2.316,2.202l-3.218,0.339l-0.734,0.029
			c-2.231,4.122-6.776,7.002-12.085,7.002c-7.51,0-13.61-5.704-13.61-12.706c0-7.03,6.1-12.706,13.61-12.706
			c6.664,0,12.17,4.461,13.355,10.362l2.316-1.016l2.597-1.214l2.429-1.723l3.416-0.593l3.417,0.904l3.529-0.904l3.36,0.875
			l2.485,0.085v-43.031l-0.791,0.367l-3.134,0.875l-3.218,0.565l-3.276-0.31l-3.444,1.468l-2.993-0.989l-3.191,0.056l-2.654-2.428
			l-1.779,0.649c-2.117,4.433-6.889,7.539-12.423,7.539c-7.51,0-13.61-5.675-13.61-12.706c0-7.002,6.1-12.706,13.61-12.706
			c6.155,0,11.294,3.868,12.988,9.12l2.004-0.029l3.332,0.537l3.078,2.089l3.529-1.525l3.36,1.892l3.529-0.282l2.597-2.654
			l2.485-0.282l0-46.871l-1.101-0.48l-3.332-0.48l-3.162-1.384l-3.529,1.695h-3.162l-3.134,0.367l-3.473-0.621l-2.371,2.061
			l-0.989,0.339c-2.004,4.715-6.889,8.075-12.649,8.075c-7.51,0-13.61-5.704-13.61-12.706c0-7.031,6.1-12.706,13.61-12.706
			c6.099,0,11.209,3.783,12.932,8.979l0.762-0.198l2.936-0.593l2.315-2.174l2.88-1.13l3.388-0.367l3.36,0.424l3.162,1.299
			l3.077,1.185l2.089,0.395v-43.623c-0.113-0.028-3.077,1.299-3.077,1.299l-3.077-0.565l-3.021-0.509l-2.683-1.553l-3.077-0.367
			l-2.682-1.638l-3.36,0.537l-2.484-1.186c-0.734,6.381-6.438,11.323-13.44,11.323c-7.51,0-13.61-5.675-13.61-12.706
			c0-7.002,6.1-12.706,13.61-12.706c4.997,0,9.346,2.569,11.689,6.324l2.033,0.452l3.106,0.197l2.767,1.553l3.643-1.13l2.937,0.96
			l2.88,0.96l2.823,2.174l3.162-1.214l1.863-0.452v-46.334l-1.807,0.452l-3.275,0.028l-3.247,0.085l-3.275-1.581l-3.332,2.259
			l-3.332-2.287l-3.388,0.198l-2.485,0.508c-1.891,4.885-6.861,8.414-12.762,8.414c-7.51,0-13.61-5.703-13.61-12.706
			c0-7.031,6.1-12.706,13.61-12.706c6.126,0,11.266,3.812,12.96,9.007l0.847-0.254l3.36,0.565l3.247-0.706l3.755,1.214l3.699,0.367
			l3.727-0.706l4.574-0.509l0.734,0.141v-43.144l-3.247,0.311l-3.247,0.056l-3.077-0.424l-3.021-0.875l-3.078,0.762l-3.219,0.085
			l-3.613-1.836l-2.654,1.073c-2.344,3.812-6.692,6.409-11.746,6.409c-7.51,0-13.61-5.675-13.61-12.706
			c0-7.002,6.1-12.706,13.61-12.706c6.72,0,12.282,4.574,13.384,10.56l0.677-0.029l3.106-0.508l3.247,1.101l3.022-0.113l3.19-0.424
			l3.36-0.847l3.106,0.791l2.795,1.948l1.017,0.028v-43.595l-0.452-0.282l-3.077-0.452h-3.219l-2.739-1.723l-3.162-0.339
			l-3.445,0.565l-2.316-3.19l-3.558,1.214l-2.174-1.581c-1.891,4.913-6.861,8.443-12.762,8.443c-7.51,0-13.61-5.704-13.61-12.706
			c0-7.031,6.1-12.706,13.61-12.706c5.534,0,10.306,3.106,12.423,7.567c0.226-0.056,3.191,2.315,3.191,2.315l3.105,1.215l3.53-0.339
			l3.445,0.028l3.078,0.706l2.852,1.327l3.247-0.197l2.033,0.395V70.552l-3.106,2.287l-3.19-1.891l-3.219,0.31l-3.247,1.073
			l-3.219-0.169l-3.021-1.525l-3.022,1.638h-3.078l-0.31-0.282c-2.4,3.586-6.636,5.958-11.492,5.958
			c-7.51,0-13.61-5.675-13.61-12.706c0-7.002,6.1-12.706,13.61-12.706c6.353,0,11.633,4.094,13.129,9.572l0.424,0.056l2.908,0.028
			l3.049,2.061l2.88-2.259l3.022,0.734l3.049,1.553l3.134-2.202l3.021,2.315l2.287-1.27V33.14H46.692z" />

	</g>
	<g className="page-lines">
		<rect x="46.684" y="111.018" fill="#CDCCCC" width="569.407" height="2.823" />
		<rect x="46.684" y="166.653" fill="#CDCCCC" width="569.407" height="2.824" />
		<rect x="46.684" y="222.287" fill="#CDCCCC" width="569.407" height="2.824" />
		<rect x="46.684" y="277.92" fill="#CDCCCC" width="569.407" height="2.824" />
		<rect x="46.684" y="333.554" fill="#CDCCCC" width="569.407" height="2.824" />
		<rect x="46.684" y="389.187" fill="#CDCCCC" width="569.407" height="2.824" />
		<rect x="46.684" y="444.821" fill="#CDCCCC" width="569.407" height="2.824" />
		<rect x="46.684" y="500.456" fill="#CDCCCC" width="569.407" height="2.823" />
		<polygon fill="#CDCCCC"
			points="46.693,556.083 46.693,558.907 511.444,558.907 512.348,557.947 516.187,556.761 516.696,556.083" />
	</g>

	<g className="page-markers">

		<path fill="#F9E92C" d="M596.008,166.819c-4.108,0.159-6.422,0.902-7.649,1.799c-1.225,0.897-1.364,1.986-1.072,3.151
				c0.609,2.333,2.836,4.974,2.325,7.107c-0.061,0.268-0.228,0.52-0.344,0.78l0.083-0.002l-0.075,0.636l-0.073-0.019
				c-0.383,2.761-0.806,5.517-1.129,8.285c-0.222,2.074,0.005,4.216-4.385,5.009c-0.509,0.106-1.106,0.574-1.005,0.835
				c0.683,1.793,0.305,3.447-0.454,5.049c-0.766,1.608-1.901,3.127-2.907,4.759c-2.041,3.219-3.268,6.509-0.789,10.281
				c1.199,1.851,1.17,3.494,0.1,4.557c-1.092,1.067-3.135,1.47-6.74,1.246l-0.128,0.045l0.21-0.03
				c0.714,2.498,1.442,4.985,1.948,7.494c0.276,1.376-0.058,2.399-0.834,3.047c-0.761,0.627-2.044,0.957-3.766,0.933
				c-1.605,0.021-2.716,0.207-3.487,0.562c-0.752,0.336-1.103,0.778-1.207,1.287c-0.205,1.018,0.565,2.305,1.096,3.508
				c0.663,1.528-0.134,3.389,1.655,4.685c0.435,0.316,0.24,1.251-1.084,1.32c-1.317,0.079-3.051,0.964-3.417-0.771
				c-1.157,1.606-1.614,3.164-5.302,1.781c-0.835-0.302-2.228-0.134-3.534,0.391c-1.366,0.561-2.599,1.458-3.162,2.644l-0.917-0.386
				c-0.025,0.21-0.049,0.416-0.073,0.62c-0.463,0.113-0.965,0.307-1.372,0.3c-2.877-0.019-4.933-2.908-9.4,1.705
				c-0.714,0.739-3.797,1.803-7.598,2.437c-3.737,0.627-8.305,0.809-11.161-0.337c-3.161-1.257-5.95-0.313-9.475,1.455
				c-0.688,0.366-4.166,3.841-3.651,0.291c0.015-0.109-0.354-0.168-0.544-0.25c-0.651,0.301-1.955,0.725-1.914,0.87
				c0.537,1.51,0.157,2.426-1.09,2.824c-0.623,0.199-1.462,0.268-2.505,0.215c-1.051-0.056-2.355-0.252-3.828-0.558
				c-0.385-0.082-1.655,0.369-2.638,0.576c0.322,0.443,1.9,0.931-0.252,1.372c-1.663,0.338-3.056,0.45-4.299,0.413
				c-1.272-0.052-2.373-0.242-3.41-0.482c-2.05-0.465-3.945-1.197-6.455-1.443l-0.018,0.026c-3.045,0.41-4.406-0.588-5.901-1.367
				c-1.5-0.78-3.283-1.468-7.405-0.638l0.11,0.022c3.039,0.515,6.333,0.906,5.201,2.398c-1.216,1.571-4.761,0.788-7.522,0.697
				c-2.411-0.028-4.834-0.494-7.192-0.679c-2.266-0.226-4.49-0.174-6.278,0.704c-0.229,0.115-1.856,0.094-3.483-0.207
				c-1.609-0.304-3.342-0.856-3.886-1.744c-0.084-0.134-0.977-0.35-1.491-0.413c-0.622-0.075-1.498-0.181-2.225-0.269
				c-0.702-0.082-1.264-0.127-1.305-0.059c-0.753,1.27-2.023,1.372-3.363,1.045c-1.314-0.328-2.857-1.082-4.124-1.515
				c1.952,0.33,2.697-0.257,3.379-0.824c0.717-0.568,1.395-1.111,3.663-0.712c-1.815-0.744-2.734-1.945-5.386-2.133l-0.104,0.608
				l-0.076-0.03c-3.758,1.125-5.162-1.972-7.996-2.053l-0.167-0.568c-6.405-0.523-11.852-2.808-16.702-2.307l2.79,1.06
				c-1.091,0.941-2.925,0.13-4.215,0.394c-2.761,0.515-5.739-1.558-9.149,0.242c-2.341,1.259-7.548-0.673-11.582-1.617
				c-0.108-0.027-0.359,0.017-0.401,0.07c-0.1,0.127-0.141,0.272-0.196,0.413c-3.548-1.629-10.296,0.017-11.994-3.94
				c-0.339-0.838-2.601,0.312-4.015,0.367c-1.48,0.051-3.756,0.31-4.417-0.106c-1.273-0.78,1.196-0.708,1.753-1.143
				c0.9-0.702-0.346-0.722-1.074-0.833c-2.035-0.318-4.082-1.443-6.258-0.58c-1.19,0.473,0.403,0.794,1.243,1.1
				c2.451,0.884-1.024,0.626-0.839,1.094c-2.802,0.242-5.369,1.332-7.825-0.965c-0.985-0.948-6.824-0.531-10.563-0.721l0.107-0.025
				c-1.337-2.332-6.831-1.554-8.646-1.475c-10.058,0.437-20.705-0.834-30.117,2.205c0.005,0.002-0.043,0.03-0.083,0.052
				l-6.656,0.233l0.078,0.038c-8.5-1.6-17.114-2.263-26.035-0.394l1.888,1.081l0.116,0.02c-3.119,0.548-6.043,1.587-9.621,0.844
				c-1.246-0.259-2.733-0.256-4.109-0.372l3.804-0.879l0.408-0.607l-1.509,0.063l-0.08,0.022
				c-6.353,0.379-12.683,1.376-19.087,0.465l0.192-0.056l-0.253,0.044c-5.535,3.501-13.083-0.046-19.149,1.596l-0.059-0.031
				c-4.182-1.969-8.929,1.238-13.279-0.122c-0.471-0.147-1.428,0.416-2.757-0.026c-2.141-0.713-5.892-4.168-6.907,0.546
				c-0.033,0.156-2.114,0.459-2.258,0.356c-4.522-3.236-8.849-0.704-13.213,0.268c0,0-0.004-0.021-0.008-0.041
				c-7.37,0.363-12.901-0.405-13.404-4.748c-0.341-2.944-5.344-3.485-9.795-3.349c-3.455,0.106-5.34-0.15-6.452-1.656l-0.075,0.013
				l-0.012-0.637l0.064,0.013c-3.889-4.056-4.466-8.536-6.066-12.883c-0.097-0.264,0.504-0.86,0.67-0.853
				c11.702,0.513,3.454-2.978,4.003-4.602c2.229-6.603-1.085-12.972-2.611-19.41c-0.509-2.146-3.815-4.85,5.266-4.292
				c1.96,0.12,1.973-0.884,1.892-1.662c-0.638-6.147-1.605-12.289-1.688-18.447c-0.034-2.559-3.414-3.953-5.341-5.878
				c-5.234-5.227-4.518-11.261-7.977-16.747c-0.319-0.506,0.293-1.671,0.822-1.735c7.047-0.843,14.333-1.261,21.182-2.387
				c4.052-0.666,9.204-0.038,12.182-2.23l-0.048-0.055l1.564,0.271c-0.211-0.063-0.316-0.155-0.302-0.28
				c0.422-0.183,1.128-0.365,1.14-0.548c0.504-7.32,11.856-3.585,18.538-4.587c0.886-0.123,1.782-0.247,2.673-0.37l-0.094-0.058
				l10.133,0.89c-3.482,0.513-1.927,1.13-0.116,1.752c0.488-0.408,0.973-0.813,1.458-1.219l2.965-0.718
				c0.558,0.879,1.863,2.223,3.459,1.334c3.765-2.097,7.092-0.718,10.638-0.422c4.337,2.035,5.653-1.225,8.735-1.388
				c-0.091,0.289-0.183,0.577-0.273,0.862c0.048,0.133,0.093,0.261,0.139,0.388l-0.113-0.421l3.716,1.826l-0.115-0.049l0.374,0.623
				l-0.02,0.009c0.623,0.39,1.246,0.78,1.877,1.174c0.045-0.061,0.089-0.123,0.141-0.183c3.049-3.459,6.863,0.9,9.672-0.329
				c3.832-1.676-7.618-1.316-2.016-3.453c0.292-0.111,1.06,0.082,1.602,0.137c0,0-0.01,0.029-0.017,0.05
				c4.094-0.069,8.928,0.978,11.138-1.927c3.595,0.773,7.426,1.142,10.734-0.197c5.916-2.395,8.167,2.171,13.129,1.309
				c-0.443,0.341-0.885,0.681-1.324,1.019l6.698-1.018c-0.165-1.794,2.009-1.978,4.875-1.687c0.739,0.454-0.897,1.438,1.351,1.556
				c0.029-0.713,0.11-1.413,1.805-1.722c1.915,1.175,3.807,2.36,5.756,3.521c0.979,0.583,1.87,1.552,3.848,0.63
				c1.491-0.695,0.905-1.166-0.814-1.609c-3.069-0.792,3.277-1.312,0.533-2.183l0.095,0.026c4.525,0.034,4.491,3.445,9.631,3.024
				c0.006-0.002,0.199-0.051,0.199-0.051l-0.323,0.049l-1.984-1.691c-0.855-0.374-1.71-0.749-2.559-1.121
				c0.006,0,0.269,0.02,0.269,0.02l-0.154-0.024l-1.761-2.102l10.457-0.202c-0.329,4.124,6.841,1.292,9.539,2.379
				c4.738,1.909,3.043-0.234,3.415-1.125c1.042-0.563,2.841-0.727,3.24-0.152c2.896,4.194,8.104,1.905,12.984,0.966l-0.112-0.041
				c3.073,0.92,2.622-0.532,3.483-1.102c3.867-0.003,7.618-1.9,11.787-0.344l-0.013-0.016c6.225-0.986,12.737-0.71,19.401,0.044
				c0.142,0.728-0.384,1.739,0,2.364c0.392,0.632,1.645,0.841,5.492,0.087l0.015,0.028c0-0.013,0-0.018,0-0.031
				c0.038-0.007,0.067-0.012,0.106-0.019c0,0-0.057-0.023-0.105-0.047c-0.085-1.31,1.049-1.616,2.575-1.6
				c1.542,0.034,3.48,0.401,4.973,0.398l0.154-0.029l-3.662,1.968l4.793,0.381l1.467,0.116l2.53,1.263
				c0.417,0.277,0.831,0.552,1.241,0.825l0.091-0.703c3.486-0.257-0.372-1.013-0.16-1.492l0.596-0.205l1.166-0.358l-0.149,0.046
				l1.492,0.147l-0.143-0.044c1.87,0.599,3.775,0.98,5.713,1.253c1.925,0.251,3.882,0.393,5.866,0.539
				c3.981,0.243,7.917,0.496,11.487,1.433c1.006,0.273,2.32,0.282,3.322,0.458c0.985,0.175,1.715,0.52,1.659,1.469
				c3.365,0.296,5.643-0.17,7.06-1.396l-0.001-0.033c0.333,1.026-1.341,2.058,1.38,3.066c0.533,0.199,1.317,0.13,1.986,0.185
				c-0.894-3.785,3.722-0.51,5.248-0.641c1.292-0.061,2.15-0.049,2.833,0.094c0.68,0.143,1.088,0.375,1.305,0.686
				c0.446,0.627,0.169,1.586-0.518,2.655l-0.218,0.013l0.139,0.017c2.269-0.224,4.364-0.513,6.242-0.883l-0.072,0.041
				c0.671-0.055,1.223-0.176,1.834-0.252l0.002,0.018c0.154-0.192,0.374-0.235,0.621-0.215c0.233,0.011,0.484,0.08,0.731,0.13
				c0.491,0.099,0.947,0.116,1.06-0.632l1.618,0.631l0.556,0.54c0.57,0.337,1.121,0.712,1.735,1.041l0.012-0.01
				c2.89,0.916,5.946,0.044,8.939-1.628c0.355-0.195,0.024-1.165,0.976-0.669c0.389,0.2,0.336,1.026,0.134,1.52
				c-0.084,0.208-0.496,0.148-0.871,0.154c-0.361-0.007-0.696,0.059-0.675,0.55c0.005,0.124,0.438,0.344,0.481,0.32
				c0.88-0.496,2.988,1.158,3.05-0.918l1.463-0.73l-0.05-0.055c0.764,0.505,1.941,0.424,2.305-0.235
				c0.436-0.804-0.754-0.534-1.467-0.484l-0.247-1.044c0.863-0.208,1.727-0.416,2.585-0.624c-0.004,0.007-0.03,0.053-0.03,0.053
				l0.754-1.239c0.219,0.017,0.441,0.004,0.669-0.055l0.011-0.027c0.974,0.093,1.919,0.206,2.927,0.285l3.048,0.226l-0.096-0.018
				c1.353,0.153,2.531-0.269,3.376-0.791c0.874-0.537,1.424-1.178,1.492-1.451c0.675-2.722,2.716-3.313,5.1-3.432
				c1.229-0.071,2.538-0.022,3.799-0.061c1.293-0.047,2.555-0.187,3.623-0.617c3.715-1.493,8.675-1.523,9.48,1.749
				c0.484,1.964,2.811,1.947,5.677,1.401c1.474-0.27,3.035-0.679,4.63-1.031c1.607-0.349,3.13-0.659,4.481-0.729
				c3.685-0.19,7.972-1.27,12.288-1.893c1.964-0.314,3.57-0.185,4.474,0.116c0.917,0.307,1.192,0.812,0.698,1.336
				c-4.205,4.509-1.854,5.806,2.548,5.999c2.278,0.141,5.076-0.016,8.057-0.069c0.738-0.019,1.478-0.038,2.213-0.056
				c0.751,0.003,1.497,0.006,2.227,0.009c1.466,0.022,2.845,0.038,4.153,0.174c5.252,0.418,11.317,0.453,17.058,1.376
				c1.666,0.278,2.804,0.634,3.566,1.018c0.768,0.41,1.157,0.84,1.327,1.254c0.337,0.829-0.197,1.604-0.376,2.086
				c-0.882,2.36-0.587,4.854-0.077,7.37c0.518,2.517,1.251,5.059,1.438,7.532C597.021,165.932,596.777,166.783,596.008,166.819z
				 M175.062,147.211l0.475-0.544l-1.04,0.313L175.062,147.211z M177.616,146.907c-0.336-0.427-0.673-0.853-1.006-1.276
				c-0.295,0.319-0.59,0.638-0.883,0.955L177.616,146.907z M178.296,144.193c-0.015-0.003-0.018-0.01-0.032-0.014l-0.071,0.224
				L178.296,144.193z M209.914,142.413c0.71-0.221,1.802-0.37,2.059-0.676c0.709-0.845-0.766-0.586-1.559-0.686
				C211.701,141.56,209.426,141.935,209.914,142.413z M241.07,141.834l-2.554,1.164c0.291,0.05,0.587,0.151,0.874,0.142
				C241.24,143.076,240.951,142.396,241.07,141.834z M246.066,142.797l-2.478,0.197c0.814,0.01,1.625,0.02,2.434,0.031
				C246.03,143.024,246.051,142.876,246.066,142.797z M268.783,241.558l0.853,0.526l-0.441-0.65L268.783,241.558z M292.861,139.891
				l-0.17-1.1C292.173,139.189,291.292,139.602,292.861,139.891z M282.52,141.668c1.876,0.682,3.83,0.528,5.817,0.06l-2.361-2.25
				c-4.395,2.504-4.646-2.145-8.303-1.072c-0.409,0.12-0.712-1.069-1.8-0.237c-0.299,0.229,0.064,0.66,0.123,0.998
				c5.006-0.872,3.853,2.041,6.62,2.545L282.52,141.668z M294.72,137.964l-1.815,0.437c0.029,0.089,0,0.175-0.076,0.259
				c0.651-0.064,1.307-0.119,1.938-0.217C294.838,138.431,294.739,138.13,294.72,137.964z M320.516,137.592
				c-0.22-0.118-0.413-0.326-0.664-0.34c-1.465-0.084-1.814,0.385-1.951,0.938L320.516,137.592z M372.299,136.152
				c-1.829,0.35-3.206,0.203-3.886-0.703c-1.508,0.684-1.316,1.476-0.754,2.291C369.056,137.128,372.061,137.413,372.299,136.152z
				 M407.635,141.132l-0.276,0.011l0.087,0.059C407.437,141.197,407.635,141.132,407.635,141.132z M406.842,247.19l0.986-0.444
				l-1.445-0.919l-0.09,0.035l0.165,0.017L406.842,247.19z M426.694,249.233l-0.24-0.397l-1.431,0.235L426.694,249.233z
				 M471.094,149.357c0.004-0.003,0.057,0.077,0.057,0.077l-0.003-0.104l0.109-0.098L471.094,149.357z M486.416,255.081
				c-1.696-0.066-3.042,0.027-4.043,0.303c-0.997,0.278-1.649,0.737-2.016,1.348C482.401,256.198,484.477,255.683,486.416,255.081z
				 M486.65,255.087c-0.03-0.001-0.054-0.001-0.083-0.002c0.029,0.038,0.069,0.089,0.069,0.089L486.65,255.087z M494.294,256.985
				l-2.707,0.023l-0.008,0.452L494.294,256.985z M549.246,246.265l0.215,0.137l-0.156-0.131L549.246,246.265z M561.83,242.573
				l0.925-0.222c-0.091,0.018-0.182,0.036-0.268,0.053L561.83,242.573z" />


		<path fill="#F9E92C" d="M146.673,310.319c0.007-2.029,0.286-3.192,1.265-3.71c1.492-0.789,1.362-2.326,1.147-4.216
				c-0.661-5.816-0.855-11.666-0.461-17.625c0.137-2.068,0.962-1.838,1.571-1.914c2.285-0.286,4.58-0.263,6.868-0.489
				c2.099-0.207,4.278,0.328,5.049-4.71c0.327-2.137,2.31-2.338,3.775-1.767c1.762,0.687,3.459,1.395,4.256-2.597
				c0.246-1.232,1.131-0.733,1.747-0.941c4.343-1.463,8.671-0.974,12.997-0.232c0.538,0.092,1.068,0.409,1.603,0.396
				c3.927-0.091,4.015-0.074,5.042-6.472c0.359-2.236,0.847-2.882,2.221-2.693c5.492,0.756,11.02,0.532,16.521,1.62
				c3.713,0.734,7.604-0.208,11.324,0.848c3.643,1.034,7.391,1.303,10.975,1.144c4.481-0.2,8.939,0.538,13.411,0.013
				c5.22-0.614,10.357,0.86,15.542,1.173c2.442,0.147,5.22-1.925,7.26,1.967c1.468-3.265,3.435-0.991,5.148-1.499
				c1.227-0.364,2.035,0.533,2.941,1.326c-0.315,0.858-0.873,0.827-1.374,1.023c-0.263,0.103-0.779,0.436-0.678,0.55
				c0.42,0.472,0.964,0.639,1.448,0.974c0.905,0.626,1.591-0.18,2.189-1.099c0.056-0.086-0.553-1.334-0.853-2.042l0.018-0.014
				c1.428-0.749,2.856-0.67,4.333-0.532c1.123,0.105,1.308,1.176,1.561,2.382c1.387-7.013,4.442-8.67,8.651-8.401
				c8.021,0.512,16.068,0.308,24.104,0.426c0.315,0.005,0.625,0.264,0.936,0.408c0.008,0.015,0.003,0.04,0.008,0.057
				c3.077-1.658,6.192-0.533,9.282-0.548c6.431-0.032,12.876-0.145,19.283,0.439c5.991,0.546,11.923-1.899,17.859-1.114
				c3.048,0.403,6.068-0.168,9.088,0.122c1.24,0.119,2.151,0.257,1.818-2.691c-0.351-3.102,0.631-4.46,2.612-4.647
				c2.309-0.218,4.614-0.1,6.862,0.321c8.62,1.616,17.322,1.999,25.969,2.702c4.873,0.397,9.919,0.21,14.888,0.041
				c5.801-0.197,11.555,1.433,17.371,1.263l-0.001-0.005c7.293,0.318,14.61,0.549,21.886,0.376
				c8.595-0.204,17.155,0.191,25.785-0.329c3.79-0.227,7.624,0.611,11.501,0.668c3.448,0.054,6.887-0.481,10.362-0.638
				c11.419-0.517,23.105-1.009,35.142-1.972c2.614-0.212,5.259-0.771,7.908-0.986c3.246-0.237,3.399,0.593,3.612,5.548
				c0.089,2.035-0.463,5.611,2.117,6.045c1.929,0.324,1.844,3.325,1.825,4.923c-0.037,3.383,1.004,4.049,2.824,4.438
				c4.06,0.865,4.104,0.959,3.567,7.181c-0.274,3.154-0.268,5.978,1.412,7.98c0.328,0.39,0.678,1.082,0.675,1.693
				c-0.016,6.129,1.459,11.89-0.202,18.428c-0.657,2.603-1.317,5.468-0.973,8.532c0.478,4.332-0.844,6.362-3.579,6.426
				c-2.344,0.039-4.747,1.186-6.85-1.329c-0.861-1.021-2.431-0.601-3.679,0.491l0.058-0.087c-1.15-0.878-2.445,0.029-3.665-0.156
				c-1.436-0.224-1.947,1.868-2.588,3.564c-1.339,3.541-2.035,4.101-4.06,2.465c-1.906-1.555-3.681-2.907-5.658,0.609
				c-0.643,1.147-1.611,0.337-2.422,0.358c-2.242,0.081-4.465-0.02-6.714,0.03c-1.929,0.038-2.941,1.742-2.898,4.996
				c0.034,2.705-0.444,5.299-0.795,7.89c-0.434,3.195-1.724,4.279-3.116,2.592c-0.637-0.773-1.227-1.518-1.877-0.897
				c-0.871,0.834,0.189,1.755,0.11,2.656c-0.193,2.212-1.694,4.136-3.113,4.27c-2.436,0.222-4.131-2.775-6.309-3.813l-0.009-0.018
				c-2.337,3.346-4.853,3.911-7.551,1.724c-0.282,0.76-0.63,2.078-0.818,2.026c-1.468-0.409-2.905-1.486-4.363,0.244
				c-2.407-3.569-4.947-1.153-7.489-0.182c-0.14-0.564-0.427-0.853-0.691-0.39c-0.282,0.493-0.032,0.903,0.282,1.13
				c-1.048,1.228-2.032,0.732-2.97-0.252c-0.896-0.934-1.744-2.031-2.91-1.879c0.146-0.915,0.167-1.774-0.321-2.41l-0.227,2.339
				c-1.188,0.866-2.326,0.13-3.465-0.243c-0.864-0.283-1.747-0.734-2.446,0.448c-0.586,0.991-1.203,0.97-1.738,0.383
				c-1.609-1.763-3.231-1.078-4.934-0.338c-3.708,1.613-4.232,1.192-5.869-4.27c-0.426,2.753-0.886,4.41-3.277,3.922
				c-1.574-0.321-3.419-0.079-5.142-0.153c-0.48-0.02-1.185,0.58-1.285-0.692c-0.098-1.253,0.697-1.509,1.169-2.123
				c-1.686-0.633-2.012-0.651-2.128,1.887c-0.135,2.971-2.34,2.583-2.505,5.088c-0.462-0.176-1.477,0.172-1.206-0.891
				c0.812-3.178-0.185-2.359-1.297-1.963c-1.245,0.443-2.528,0.561-3.774,1.001c-0.162,0.057,1.063,1.175,0.018,1.745
				c-0.366,0.2-0.866-0.103-1.267-0.339c-0.541-0.317-0.617-0.954-0.698-1.984c-0.273-3.486-0.372-3.462-2.221-0.942
				c-0.001-0.024-0.002-0.033-0.003-0.055c-1.381,1.131-2.744,1.085-4.277,0.7c-2.841-0.713-5.665-2.164-8.672-0.228
				c-1.515,0.975-3.154,0.729-4.959-0.102c-1.812-0.834-3.917-0.428-5.654-2.286c-0.751-1.721-1.69-1.485-2.18,0.211
				c-0.414,1.434-1.156,2.004-1.773,2.73c-0.864,1.017-1.98,2.693-2.838-0.328c-0.335-1.178-1.146-1.98-1.741-2.953l0.031,0.109
				c-0.415-1.512-0.874-1.378-1.364-0.121c-0.091,0.076-0.199,0.13-0.252,0.25c-0.688,1.551,0.175,4.387-1.757,4.987
				c-1.71,0.531-2.26-0.994-2.756-3.12c-0.262-1.125-1.067-1.314-1.671-1.127c-1.221,0.379-0.007,1.493-0.144,2.346
				c-0.23,1.432-0.649,1.709-1.358,1.556c-0.95-0.205-1.891-0.497-2.833-0.756c0.004-0.01,0.011-0.026,0.015-0.037
				c-2.843,1.551-5.791,1.461-8.591,0.628c-4.262-1.269-8.515-0.782-12.784-0.581c-1,0.047-1.882-0.224-2.698-1.077l-0.017,0.051
				c-4.575,1.489-9.062-0.188-13.586-0.529c-4.103-0.309-8.128-2.075-12.291-1.298c-0.535,0.1-1.173,0.208-1.616-0.156
				c-5.652-4.652-11.811-2.584-17.774-3.074c-0.215-0.018-0.469,0.183-0.646,0.062c-5.318-3.619-11.019-1.529-16.521-2.389
				c-1.513-0.237-2.565-3.112-4.361-1.835c-0.048,0.034,0.382-1.145,0.626-1.847c-2.233,0.392-4.395-1.347-6.655-0.368
				c-0.289,0.125-0.728-0.365-0.938-0.148c-3.374,3.473-6.063,1.618-8.523-2.468c-0.534-0.888-1.549-0.389-1.769,0.107
				c-1.064,2.396-3.181,2.215-4.094,4.792c-0.623,1.756-1.382,1.235-2.168,0.548c-0.039-1.559,0.15-2.834,1.382-2.583
				c0.457,0.093,0.909,0.165,0.929-0.792c0.018-0.859-0.674-1.22-0.893-1.158c-3.222,0.918-6.423-0.951-9.629,0.173
				c-1.497,0.525-0.864,1.795-0.336,2.958l-0.053-0.116c-2.145,6.021-6.038,4.841-9.28,6.023c-1.441,0.525,0.772-2.585-0.575-3.037
				c0.607-0.323,1.197-0.588,1.862-0.422c0.371,0.092,0.801,0.973,1.088,0.246c0.241-0.613-0.148-1.234-0.498-1.688
				c-1.179-1.556-2.343-3.095-3.516-4.643c-0.714,1.496-1.569,2.98,0.175,4.245c0.203,0.147,0.222,0.948,0.326,1.446
				c-1.816,2.121-4.291,1.736-5.984,4.454c-0.361,0.58-0.963-0.154-1.388-0.702c-0.045-0.379-0.09-0.757-0.135-1.129
				c-1.273-0.402-2.531-0.773-1.39-3.756c0.314-0.82-0.344-1.69-0.241-2.431c0.259-1.857,0.587-3.376-1.023-1.321
				c-0.148,0.189-0.492-0.036-0.784-0.147c0.339,0.739,1.263,0.797,1.026,2.115c-0.23,1.279-0.86,0.64-1.356,0.464
				c-0.212-0.075-0.479-0.33-0.626-0.202c-2.19,1.914-3.734-1.238-5.611-1.743c-0.407-0.109-0.831-3.161-1.031,0.202
				c-0.117,1.979-0.053,4.176-1.937,2.298c-0.304-0.303-1.017,0.405-1.525,0.72c-0.399,0.247-0.77,0.618-1.157,0.919
				c-1.847,1.439-3.206-2.199-4.861-1.263c-1.474,0.834-2.566,3.251-4.487,2.011c-0.893-0.576-2.283-1.828-3.007,0.909
				c-1.887,1.498-3.474-0.668-4.912-1.618c-2.227-1.472-3.746-0.304-5.113,1.969c-0.764,1.27-1.415,2.141-2.46,1.948
				c-0.482-0.089-1.21,0.562-1.387-0.643c-0.127-0.859,0.561-0.807,0.849-1.224c0.792-1.147,0.237-2.65,0.369-3.981
				c-1.78,0.514-3.303,2.543-5.179,2.53c-0.191-0.001-0.494,0.229-0.565,0.483c-1.622,5.783-4.649,3.295-7.136,3.26
				c-1.579-0.022-3.272,0.42-4.786-0.8c-0.285-0.23-0.714-0.532-0.756-0.907c-0.106-0.951,0.47-0.843,0.83-1.055
				c0.404-0.239,0.837-0.426,1.189-0.808c0.361-0.392,0.705-1.44,0.111-1.542c-2.746-0.471-5.422-3.434-8.28-0.523
				c-0.149,0.152-0.222,0.51-0.318,0.805c-0.426-0.034-0.875,0.044-1.035,0.773c-0.89,4.058-1.572,1.793-2.275-0.022
				c-0.81-0.769-1.047,0.561-1.542,1.105c-0.798,0.878-1.527,3.892-2.678,0.541c-0.212-0.617-0.754-0.037-1.12,0.443
				c-2.436,3.204-5.235,2.389-7.977,2.123c-2.185-0.212-4.293-1.879-6.588-0.113c-0.898,0.691-1.944-0.139-2.331-1.975
				c-0.317-1.501-0.665-2.998-0.873-4.547c-0.319-2.374-1.218-3.877-2.601-4.195c-3.874-0.89-7.619-3.972-11.739-0.946
				c-1.706,1.253-2.354-2.409-2.478-3.547C148.565,327.552,146.641,319.274,146.673,310.319z M512.069,351.43
				c0.11,0.101,0.275,0.034,0.431-0.003c-0.109-0.206-0.213-0.483-0.335-0.501C511.942,350.892,511.874,351.25,512.069,351.43z
				 M459.693,350.391c-0.364-0.012-0.734,0.206-1.103,0.354c0.33,0.365,0.666,0.766,1.091,0.421
				C459.892,350.995,459.877,350.398,459.693,350.391z M443.403,354.256c-0.11-1.087,0.088-2.3-0.447-3.215
				C442.271,352.465,441.513,353.918,443.403,354.256z M442.354,260.377l-0.08-0.652
				C442.164,259.954,442.006,260.186,442.354,260.377z M436.22,350.98c-0.004,1.093,0.626,0.766,0.967,0.733
				c1.915-0.189,3.827-0.486,5.737-0.746c-1.735-4.09-3.96-1.09-5.988-0.826C436.675,350.175,436.221,350.695,436.22,350.98z
				 M399.251,356.083c0.194-0.518,0.525-0.952,0.37-1.657c-0.012-0.054-0.212-0.07-0.285,0.003
				C398.84,354.932,399.089,355.514,399.251,356.083z M375.171,355.059c0.176,0.005,0.374,0.048,0.471-0.093
				c0.178-0.26,0.053-0.624-0.201-0.536C375.331,354.467,375.255,354.801,375.171,355.059z M317.449,264.472l-0.208-0.566
				C317.217,264.168,317.146,264.465,317.449,264.472z M309.096,344.024c0.151,0.047,0.31,0.12,0.421,0.031
				c0.202-0.162,0.154-0.498-0.064-0.473C309.33,343.596,309.214,343.84,309.096,344.024z M281.991,273.074
				c0.015-0.016,0.023-0.032,0.041-0.047c0.646-0.172,1.03-0.933,1.42-1.679C282.769,271.455,281.822,270.935,281.991,273.074z
				 M259.629,349.246c0.027-0.074-0.046-0.337-0.112-0.392c-0.596-0.496-0.797,0.319-1.086,0.846
				C258.842,349.606,259.326,350.079,259.629,349.246z M253.956,341.968l0.732,0.063c-0.139-0.394-0.322-0.674-0.645-0.494
				C253.992,341.567,253.984,341.819,253.956,341.968z M217.864,345.237C217.764,345.427,217.872,345.354,217.864,345.237
				L217.864,345.237z M190.025,346.883l-0.485,0.331C189.738,347.303,189.969,347.58,190.025,346.883z" />

	</g>

	<g className="page-bottom-markers">

		<path fill="#E52629" d="M8.814,523.907c2.774,3.758,2.22,0.263,3.131-0.031c0.057-0.019,0.129-0.007,0.194-0.01l-0.014-0.023
				l0.123-0.064l0.009,0.023c0.544-0.264,1.095-0.514,1.63-0.796c0.397-0.211,0.716-0.608,1.696,0.713
				c0.113,0.152,0.308,0.29,0.337,0.225c0.786-1.771,4.209,2.055,4.497-0.88c0.149-1.434,1.167-0.859,2.558,2.25l0.036,0.051
				l-0.05-0.088c0.353-0.511,0.688-1.053,1.067-1.517c0.416-0.508,1.109,0.255,1.848,1.848c1.468,2.845,1.663,1.866,1.953,1.281
				c0.187-0.372,0.78-0.098,0.655-0.976c-0.031-0.216,0.217-0.175,0.541,0.433c0.317,0.595,0.869,1.297,0.558,1.525
				c0.57,0.396,1.044,0.572,1.374,2.051c0.147,0.66,1.044,2.041,1.726,2.338l0.043,0.33l0.149,0.002
				c0.097,0.153,0.219,0.317,0.281,0.455c0.423,0.952,0.084,1.754,1.697,2.935c0.526,0.378,2.515,3.576,2.699,5.246
				c0.112,0.913,0.648,1.583,1.426,2.335c0.159,0.154,1.269,0.722,0.483,0.874c-0.024,0.005,0.007,0.1,0.012,0.152
				c0.138,0.138,0.375,0.419,0.399,0.394c0.491-0.498,0.915,0.057,1.349,1.511c0.028,0.092,0.263,0.349,0.416,0.539
				c0.049-0.113-0.033-0.501,0.297-0.076c1.01,1.315,0.857,2.056,1.404,3.125l0.007,0.001c0.919,1.124-0.029,1.455,1.374,2.787
				l-0.012-0.023c-0.321-0.632-0.679-1.295-0.264-1.266c0.441,0.03,0.751,0.779,1.119,1.285c0.63,0.865,1.131,2.036,2.004,2.456
				c0.116,0.056,0.999,1.205,0.946,1.7c-0.005,0.038,0.128,0.248,0.213,0.359c0.207,0.27,0.579,0.762,0.615,0.757
				c0.668-0.1,1.003,0.928,1.427,1.645c-0.729-0.971-0.878-0.176-1.634-1.228c0.239,0.488,0.26,0.891,0.772,1.487l0.107-0.08
				l0.012,0.022c0.945,0.633,0.821,1.483,1.455,2.18l-0.038,0.141c1.371,1.628,2.504,3.582,3.998,5.117l-0.665-1.102
				c0.434,0.178,0.859,0.924,1.272,1.316c0.891,0.847,1.429,2.185,2.635,3.013c0.825,0.569,1.968,2.601,2.841,4.016
				c0.024,0.039,0.096,0.113,0.115,0.118c0.046,0.013,0.08,0.005,0.117,0.002c0.653,1.371,2.577,3.243,2.307,4.299
				c-0.057,0.221,0.664,0.748,1.005,1.17c0.361,0.447,0.922,1.095,1.005,1.351c0.158,0.486-0.398-0.267-0.6-0.378
				c-0.327-0.178-0.045,0.2,0.103,0.433c0.417,0.658,0.674,1.406,1.315,1.941c0.348,0.291,0.049-0.221-0.088-0.511
				c-0.398-0.844,0.34,0.224,0.38,0.108c0.666,0.796,1.427,1.415,1.553,2.415c0.051,0.411,1.376,2.033,2.121,3.11l-0.027-0.027
				c-0.131,0.677,1.146,2.135,1.538,2.641c2.169,2.801,4.159,5.963,6.626,8.328c0,0,0.014,0.009,0.026,0.017l1.409,1.893
				l-0.009-0.027c1.474,2.629,3.081,5.244,5.209,7.659l-0.183-0.685l-0.02-0.036c0.726,0.855,1.504,1.597,2.088,2.74
				c0.203,0.398,0.502,0.836,0.758,1.256l-0.925-1.02l-0.193-0.049l0.315,0.437l0.02,0.021c1.353,1.819,2.733,3.661,3.819,5.689
				l-0.048-0.052l0.057,0.071c1.719,1.287,2.557,3.937,3.962,5.669l0.005,0.022c0.405,1.513,1.89,2.646,2.439,4.145
				c0.059,0.162,0.344,0.401,0.506,0.861c0.256,0.747,0.307,2.253,1.37,2.104c0.036-0.005,0.456,0.631,0.461,0.687
				c0.167,1.779,1.403,2.905,2.351,4.212l-0.006,0.007c1.352,2.329,2.169,4.175,1.374,4.766c-0.52,0.391,0.167,2.081,0.898,3.527
				c0.568,1.123,0.815,1.765,0.693,2.262l0.014,0.023l-0.124,0.06l-0.008-0.022c-0.191,1.63-0.993,2.205-1.609,3.1
				c-0.037,0.054-0.249-0.088-0.274-0.142c-1.716-3.817-1.126-0.848-1.534-0.883c-1.652-0.128-2.403,1.498-3.452,2.538
				c-0.349,0.349-0.389,1.617-1.645-1.269c-0.271-0.624-0.472-0.537-0.613-0.441c-1.117,0.755-2.186,1.605-3.391,2.184
				c-0.5,0.242-0.28,1.396-0.38,2.15c-0.274,2.045-1.58,2.349-2.177,3.852c-0.055,0.138-0.376,0.056-0.464-0.095
				c-1.177-2.018-2.301-4.143-3.496-6.069c-0.357-0.568-0.675-1.253-1.037-1.872c-0.381-0.611-0.777-1.165-1.224-1.491l-0.003,0.019
				l-0.194-0.481c0.021,0.067,0.02,0.107-0.007,0.115c-0.102-0.105-0.248-0.292-0.286-0.278c-1.497,0.572-2.549-3.077-3.785-4.915
				c-0.158-0.245-0.337-0.487-0.511-0.728l0.005,0.033l-1.55-2.984c0.688,0.939,0.541,0.43,0.351-0.154l-0.478-0.286l-0.638-0.769
				c0.071-0.254,0.102-0.773-0.336-1.133c-1.042-0.844-1.314-1.955-1.906-2.987c-0.407-1.451-1.251-1.458-1.838-2.307l0.209-0.02
				l0.047-0.083l-0.058,0.079l-0.335-1.256l0.012,0.038l0.047-0.177l0.005,0.005l-0.123-0.664l-0.059-0.019
				c-1.19-0.466-1.078-2.044-1.813-2.698c-1.001-0.888,1.138,2.305-0.269,0.969c-0.073-0.069-0.177-0.309-0.264-0.468
				c0,0,0.007,0,0.012-0.001c-0.743-1.15-1.506-2.614-2.445-2.892c-0.542-1.094-1.203-2.209-2.074-2.973
				c-1.561-1.363-1.142-2.545-2.289-3.818l0.445,0.244l-1.506-1.737c-0.29,0.264-0.752-0.316-1.265-1.148
				c-0.064-0.261,0.435,0.073,0.012-0.566c-0.133,0.079-0.275,0.142-0.664-0.29c-0.169-0.676-0.336-1.346-0.507-2.032
				c-0.089-0.344-0.092-0.711-0.648-1.148c-0.418-0.329-0.386-0.107-0.126,0.425c0.465,0.95-0.881-0.748-0.494,0.122l-0.014-0.03
				c-0.898-1.259-0.293-1.672-1.409-3.045l-0.049-0.049l0.074,0.083l0.102,0.76l0.319,0.848L57.599,609l0.027,0.046l-0.017,0.749
				l-2.156-2.871c0.8-0.423-1.158-2.057-1.512-2.94c-0.623-1.552-0.659-0.814-0.892-0.805c-0.313-0.22-0.7-0.691-0.682-0.874
				c0.144-1.333-1.313-2.458-2.447-3.634l0.015,0.035c-0.446-0.926-0.611-0.621-0.88-0.774c-0.763-1.015-1.818-1.724-2.355-2.981
				l0,0.005c-1.375-1.439-2.578-3.07-3.728-4.746c0.185-0.273,1.071-0.074-0.651-1.633l0.002-0.008l-0.005,0.004l-0.023-0.022
				c0,0,0.007,0.017,0.013,0.031c-0.393,0.417-1.066-0.871-1.639-1.544l-0.034-0.03l1.016,0.538l-0.861-1.141l-0.264-0.347
				l-0.29-0.76l-0.112-0.404l-0.127,0.087c-0.714-0.726-0.085,0.237-0.201,0.262l-0.147-0.099l-0.28-0.2l0.036,0.026l-0.264-0.348
				l0.021,0.038c-1.069-2.013-2.82-3.502-4.08-5.393c-0.365-0.54-1.112-1.17-0.831-1.477c-0.717-0.854-1.332-1.363-1.839-1.516
				l-0.004,0.006c0.051-0.277,0.602-0.013,0.061-0.926c-0.109-0.184-0.316-0.388-0.478-0.582c-0.261,0.948-1.022-0.954-1.488-1.451
				c-1.443-1.539-1.289-1.931-0.593-1.832l0.067,0.075l-0.04-0.052c-0.709-0.746-1.408-1.509-2.1-2.286l0.03,0.024l-0.683-0.807
				l0.002-0.004c-0.335-0.166-0.703-1.228-1.028-1.121l-0.574-1.028l-0.136-0.397l-0.511-1.116l-0.006-0.005
				c-0.931-1.675-2.061-3.042-3.231-4.33c-0.141-0.152-0.26,0.061-0.404-0.399c-0.058-0.186,0.137-0.21,0.296-0.152
				c0.135,0.05,0.367,0.738,0.568,0.655c0.025-0.01-0.048-0.224-0.065-0.243c-0.35-0.375-0.513-1.381-0.991-1.294l-0.511-0.578
				l0,0.024c-0.075-0.353-0.366-0.835-0.589-0.944c-0.274-0.135,0.041,0.325,0.226,0.626l-0.175,0.156l-0.731-1.035l0.019,0.01
				l-0.451-0.252c-0.042-0.087-0.092-0.174-0.154-0.261l-0.008-0.003l-1.089-2.303l0.014,0.036c-0.44-0.981-1.204-1.658-1.358-1.681
				c-1.469-0.305-1.823-2.761-2.808-4.071c-0.848-1.127-1.485-2.605-0.868-2.996c0.715-0.449-1.138-2.8-1.795-4.284
				c-0.451-1.011-1.155-2.12-1.762-3.176c-0.567-0.987-0.607-1.591-0.28-1.42c2.801,1.457,0.023-2.665-0.964-5.227
				c-0.538-1.295-1.294-2.643-1.903-3.968c-0.705-1.535-0.077-1.445,0.144-1.494c1.082-0.238,1.581-1.511,2.356-2.289
				C8.501,523.793,8.684,523.73,8.814,523.907z M84.847,647.631l-0.181-0.086l0.225,0.273L84.847,647.631z M84.385,646.916
				l-0.089,0.418l0.325,0.164L84.385,646.916z M83.751,646.983c0.001,0.005,0.002,0.011,0.002,0.011l0.055-0.001L83.751,646.983z
				 M78.296,638.023c-0.162-0.18-0.376-0.476-0.478-0.517c-0.28-0.112,0.02,0.282,0.135,0.519
				C77.831,637.603,78.288,638.214,78.296,638.023z M72.731,629.221l0.678,0.59c-0.044-0.088-0.078-0.183-0.132-0.263
				C72.929,629.032,72.856,629.191,72.731,629.221z M72.003,627.699l0.486,0.678l-0.436-0.692
				C72.053,627.685,72.02,627.694,72.003,627.699z M85.729,609.632l-0.076-0.314l-0.03,0.207L85.729,609.632z M62.58,614.943
				l-0.164,0.181C62.59,615.22,62.838,615.414,62.58,614.943z M64.938,617.603c-0.237-0.607-0.659-1.13-1.133-1.626l0.061,0.929
				c1.326,0.917,0.509,1.555,1.405,2.445c0.1,0.1-0.058,0.327,0.299,0.531c0.098,0.056,0.107-0.097,0.157-0.154
				c-1.109-1.295-0.364-1.322-0.8-2.158L64.938,617.603z M61.867,614.662l0.437,0.451c0.01-0.019,0.032-0.021,0.062-0.01
				c-0.142-0.172-0.284-0.345-0.422-0.512C61.928,614.572,61.893,614.636,61.867,614.662z M56.66,607.549
				c0.024,0.076,0.026,0.155,0.074,0.226c0.282,0.416,0.436,0.455,0.563,0.424L56.66,607.549z M46.068,593.86
				c0.415,0.413,0.657,0.778,0.632,1.068c0.409,0.291,0.509,0.139,0.54-0.112C46.864,594.541,46.33,593.752,46.068,593.86z
				 M40.065,584.823l0.055,0.059l-0.008-0.028L40.065,584.823z M55.834,567.748l-0.345-0.249l0.295,0.646l0.031,0.024l-0.045-0.058
				L55.834,567.748z M51.013,561.813l-0.001,0.125l0.357,0.303L51.013,561.813z M25.331,565.1l-0.009-0.041l-0.018,0.014
				l-0.061-0.049L25.331,565.1z M42.244,549.019c0.399,0.74,0.752,1.053,1.071,1.063L42.244,549.019z M42.216,548.969l0.01,0.018
				c0.004-0.01,0.008-0.024,0.008-0.024L42.216,548.969z M41.692,547.124l0.316,0.59l0.088-0.043L41.692,547.124z M32.713,532.855
				l-0.002-0.078l-0.006,0.058L32.713,532.855z M29.829,528.292l-0.226-0.369l0.063,0.108L29.829,528.292z" />
		<path fill="#EA5823" d="M113.433,612.66c2.743,0.844,4.932,2.382,6.606,4.353c0.839,0.983,1.547,2.073,2.115,3.248
				c0.284,0.587,0.534,1.196,0.747,1.822c0.202,0.636,0.348,1.306,0.468,1.981c0.444,2.566,0.66,5.326,0.97,7.957
				c0.091,0.768-0.333,1.639-1.105,1.596c-3.127-0.158-6.081,1.556-9.361-0.001c-2.21-1.045-4.588-1.586-6.934-2.133
				c-2.353-0.543-4.783-1.046-6.944-2.09c-0.204-0.098-0.611-0.113-0.627-0.223c-0.21-1.465-1.397-2.365-2.445-3.328
				c-1.074-0.956-2.064-1.957-1.817-3.739c0.084-0.625-0.064-1.404-0.756-1.556c-2.409-0.517-2.555-2.343-2.731-4.265l-0.012,0.048
				c-2.772-1.055-4.249-3.115-5.46-5.676c-0.467-1.007-2.144-1.483-3.524-1.813c-2.024-0.477-3.224-1.697-3.104-3.969
				c0.152-2.578-2.252-3.16-3.887-3.489c-3.702-0.735-2.637-3.702-3.226-5.928c-0.149-0.546,0.226-1.406-0.421-1.651
				c-1.487-0.563-2.751-1.206-2.796-3.026l-0.01,0.031l-0.239-0.318l0.038-0.001c0.19-3.35-2.525-5.759-2.836-8.992
				c-0.037-0.389-0.663-1.006-1.03-1.004c-2.728,0.02-3.192-3.174-5.588-3.785c-0.479-0.122-0.46-2.023-0.67-3.101l-0.008,0.036
				c-0.731,0.012-1.537,0.212-1.897-0.707l-0.016,0.039c0.299-0.538-0.173-0.497-0.452-0.6l0.052-0.002l-0.333,0.255l0.007-0.046
				c-3.543,0.07-3.732-2.866-3.698-5.043c0.035-2.3-1.366-3.187-2.755-3.302c-3.084-0.271-4.076-2.631-4.548-4.714
				c-0.479-2.135-1.725-2.63-3.286-3.266c-0.433-0.177-1.165-0.372-1.208-0.647c-0.637-4.196-5.957-5.778-5.717-10.459
				c0.038-0.773-0.443-1.3-1.118-1.476c-2.609-0.697-3.585-2.496-3.588-5.057c-0.008-1.423-0.702-2.569-1.884-3.293
				c-1.133-0.694-1.781-1.664-1.875-2.903c-0.146-1.66-0.771-3.236-1.369-4.807c-0.596-1.571-1.149-3.154-1.04-4.882
				c0.105-1.572-1.715-1.775-2.558-2.546c-2.311-2.037-3.178-7.756-1.066-9.783c0.176-0.172,0.696-0.201,0.941-0.075
				c2.31,1.19,4.702,2.088,7.09,2.902c2.357,0.782,4.684,1.554,7.134,2.367c2.88,0.994,5.984,1.721,9.018,2.22
				c2.052,0.35,3.875,1.037,5.348,2.111c1.473,1.073,2.612,2.526,3.41,4.372c0.716,1.646,1.421,2.954,3.165,4.067
				c1.703,1.058,2.252,3.669,3.417,5.581l0.013-0.033c-0.015,0.436-0.15,1.224-0.027,1.258c2.831,0.783,2.71,3.503,2.7,5.372
				c-0.017,2.95,2.141,3.247,3.865,3.813c3.342,1.086,4.614,3.522,5.29,6.612c0.114,0.538,0.135,1.103,0.677,1.264
				c3.079,0.915,3.759,3.525,4.535,6.158c0.064,0.22,0.065,0.529,0.216,0.644c3.36,2.569,3.869,6.823,5.849,10.253
				c1.778,3.068,3.254,5.71,7.275,6.805c4.675,1.235,6.228,6.331,8.064,10.143c1.338,2.719,3.301,3.704,5.308,5.123
				c1.194,0.854,2.114,1.763,2.341,3.237c0.372,2.349,1.887,3.87,3.551,5.485c1.88,1.868,2.558,4.292,1.797,7.084
				c-0.576,2.162,0.354,4.013,2.002,5.5L113.433,612.66z" />
		<path fill="#F9E92C" d="M26.568,472.429c3.16,4.475,2.32,0.449,3.242,0.175c0.057-0.018,0.133,0,0.2,0.002l-0.017-0.027
				l0.123-0.065l0.011,0.027c0.544-0.265,1.096-0.513,1.628-0.799c0.396-0.214,0.696-0.645,1.81,0.924
				c0.128,0.181,0.341,0.351,0.366,0.278c0.681-1.965,4.51,2.613,4.589-0.711c0.047-1.622,1.144-0.902,2.814,2.725l0.041,0.061
				l-0.059-0.103c0.327-0.56,0.633-1.155,0.99-1.66c0.418-0.558,1.109,0.372,2.103,2.206c1.79,3.332,1.896,2.235,2.152,1.586
				c0.163-0.411,0.804-0.06,0.598-1.07c-0.05-0.248,0.211-0.185,0.601,0.53c0.382,0.7,1.017,1.538,0.712,1.776
				c0.628,0.49,1.136,0.723,1.607,2.431c0.105,0.381,0.42,0.98,0.803,1.532c0.408,0.547,0.882,1.046,1.265,1.236l0.087,0.376
				l0.159,0.013c0.116,0.182,0.258,0.377,0.335,0.539c0.529,1.116,0.246,2.004,2.043,3.469c0.289,0.235,1.033,1.3,1.743,2.545
				c0.704,1.247,1.463,2.653,1.634,3.607c0.199,1.045,0.823,1.848,1.709,2.765c0.182,0.188,1.402,0.924,0.586,1.031
				c-0.025,0.003,0.016,0.113,0.026,0.174c0.158,0.168,0.432,0.506,0.456,0.48c0.475-0.523,0.971,0.142,1.556,1.825
				c0.039,0.106,0.303,0.418,0.491,0.644c0.041-0.123-0.09-0.567,0.31-0.061c1.234,1.563,1.136,2.386,1.799,3.642l0.008,0.001
				c1.067,1.351,0.091,1.639,1.687,3.267l-0.014-0.027c-0.392-0.741-0.827-1.521-0.385-1.452c0.47,0.074,0.86,0.947,1.293,1.55
				c0.745,1.031,1.357,2.4,2.338,2.95c0.13,0.073,1.193,1.443,1.166,1.995c-0.002,0.042,0.155,0.29,0.254,0.423
				c0.241,0.323,0.675,0.911,0.712,0.909c0.701-0.049,1.138,1.138,1.644,1.983c-0.85-1.16-0.947-0.283-1.832-1.535
				c0.292,0.57,0.346,1.024,0.936,1.742l0.108-0.08l0.014,0.026c1.053,0.801,0.987,1.743,1.715,2.585l-0.03,0.154
				c1.582,1.96,2.967,4.252,4.652,6.116l-0.788-1.298c0.475,0.242,0.982,1.118,1.449,1.597c1.01,1.036,1.68,2.583,3.024,3.629
				c0.921,0.72,2.291,3.101,3.313,4.763c0.028,0.045,0.11,0.135,0.131,0.143c0.05,0.019,0.086,0.014,0.125,0.014
				c0.79,1.592,2.968,3.87,2.753,5.017c-0.045,0.24,0.759,0.899,1.151,1.403c0.414,0.533,1.054,1.307,1.16,1.6
				c0.201,0.556-0.441-0.336-0.663-0.479c-0.36-0.23-0.034,0.217,0.139,0.491c0.488,0.772,0.812,1.628,1.529,2.286
				c0.389,0.357,0.038-0.24-0.128-0.577c-0.481-0.977,0.376,0.282,0.411,0.158c0.762,0.95,1.612,1.712,1.814,2.836
				c0.083,0.461,1.6,2.397,2.465,3.662l-0.03-0.033c-0.091,0.73,1.361,2.475,1.811,3.073c2.483,3.327,4.829,7.001,7.601,9.843
				c0,0,0.016,0.011,0.029,0.022l1.622,2.228l-0.012-0.031c1.728,3.073,3.66,6.051,6.066,8.925l-0.243-0.777l-0.023-0.042
				c0.827,1.01,1.7,1.898,2.399,3.217c0.243,0.46,0.59,0.971,0.89,1.459l-1.048-1.209l-0.206-0.07l0.363,0.512l0.023,0.025
				l2.352,3.198c0.762,1.089,1.484,2.213,2.128,3.39l-0.054-0.061l0.066,0.084c1.906,1.554,2.96,4.61,4.642,6.562l0.007,0.024
				c0.545,1.726,2.184,3.095,2.878,4.815c0.075,0.186,0.391,0.472,0.597,1c0.333,0.851,0.492,2.567,1.611,2.441
				c0.037-0.004,0.549,0.717,0.56,0.78c0.365,1.974,1.707,3.363,2.807,4.889l-0.006,0.007c1.593,2.721,2.585,4.867,1.84,5.467
				c-0.479,0.387,0.361,2.368,1.226,4.074c0.674,1.323,0.979,2.074,0.89,2.635l0.017,0.028l-0.124,0.061l-0.01-0.026
				c-0.073,1.853-0.86,2.458-1.43,3.44c-0.035,0.059-0.265-0.117-0.294-0.18c-2.064-4.477-1.229-1.043-1.654-1.11
				c-1.719-0.253-2.373,1.556-3.38,2.675c-0.335,0.376-0.282,1.82-1.796-1.554c-0.327-0.729-0.528-0.643-0.666-0.543
				c-1.098,0.791-2.14,1.693-3.342,2.277c-0.499,0.244-0.186,1.573-0.234,2.425c-0.132,2.311-1.461,2.574-1.968,4.245
				c-0.047,0.153-0.384,0.04-0.487-0.138c-1.364-2.368-2.679-4.854-4.052-7.12c-0.789-1.343-1.718-3.154-2.68-3.961l-0.002,0.022
				l-0.242-0.561c0.028,0.078,0.03,0.123,0.003,0.131c-0.115-0.126-0.283-0.349-0.321-0.335c-0.754,0.277-1.482-0.641-2.203-1.902
				c-0.713-1.262-1.427-2.869-2.229-3.938l-0.614-0.862l0.008,0.038l-1.892-3.513c0.805,1.12,0.605,0.53,0.353-0.15l-0.526-0.361
				L107.516,605c0.052-0.284,0.038-0.872-0.454-1.314c-1.148-1.044-1.648-2.298-2.345-3.522c-0.557-1.68-1.447-1.755-2.141-2.767
				l0.219-0.006l0.042-0.09l-0.054,0.085l-0.464-1.452l0.016,0.044l0.034-0.196l0.006,0.006c-0.063-0.253-0.125-0.507-0.188-0.763
				l-0.064-0.027c-1.29-0.628-1.316-2.405-2.187-3.195c-1.17-1.08,1.471,2.685-0.182,1.069c-0.086-0.084-0.223-0.362-0.335-0.548
				c0,0,0.007,0,0.013,0c-0.933-1.352-1.828-3.082-2.856-3.477c-0.666-1.284-1.46-2.602-2.447-3.542
				c-1.757-1.683-1.482-2.96-2.778-4.502l0.491,0.316l-1.736-2.094c-0.287,0.269-0.823-0.427-1.434-1.41
				c-0.089-0.299,0.468,0.124-0.031-0.634c-0.135,0.076-0.281,0.133-0.729-0.39c-0.232-0.775-0.462-1.542-0.697-2.328
				c-0.12-0.395-0.157-0.806-0.791-1.347c-0.478-0.408-0.424-0.157-0.098,0.463c0.582,1.108-1.011-0.923-0.52,0.088l-0.018-0.035
				c-1.063-1.497-0.44-1.899-1.731-3.545l-0.056-0.059l0.085,0.101l0.165,0.86l0.403,0.98l-0.06-0.091l0.032,0.054l0.037,0.836
				l-2.506-3.425c0.819-0.393-1.384-2.414-1.826-3.437c-0.777-1.797-0.761-0.976-1.009-0.99c-0.347-0.277-0.805-0.844-0.796-1.045
				c0.059-1.47-1.569-2.87-2.858-4.295l0.018,0.04c-0.539-1.076-0.693-0.753-0.991-0.951c-0.883-1.208-2.055-2.103-2.715-3.558
				l0,0.006c-1.562-1.738-2.95-3.668-4.286-5.644c0.178-0.285,1.133,0.024-0.804-1.88l0.001-0.008l-0.005,0.004l-0.026-0.026
				c0,0,0.008,0.019,0.016,0.036c-0.389,0.425-1.193-1.074-1.846-1.878l-0.038-0.037l1.116,0.698l-0.992-1.353l-0.304-0.407
				l-0.359-0.869l-0.146-0.458l-0.129,0.085c-0.806-0.874-0.074,0.254-0.195,0.272l-0.162-0.124l-0.31-0.249l0.04,0.032
				l-0.304-0.411l0.025,0.044c-1.27-2.335-3.228-4.155-4.693-6.374c-0.422-0.639-1.262-1.391-0.986-1.706
				c-0.823-1.002-1.504-1.63-2.053-1.842l-0.004,0.007c0.035-0.303,0.636,0.04,0-1.022c-0.128-0.214-0.361-0.458-0.546-0.689
				c-0.209,1.029-1.147-1.15-1.674-1.743c-1.632-1.837-1.497-2.258-0.755-2.088l0.077,0.09l-0.045-0.062l-2.394-2.695l0.034,0.028
				l-0.782-0.947l0.002-0.004c-0.365-0.212-0.829-1.423-1.164-1.33l-0.679-1.19l-0.172-0.452l-0.62-1.283l-0.007-0.006
				c-1.099-1.944-2.389-3.557-3.751-5.031c-0.162-0.177-0.269,0.049-0.455-0.474c-0.075-0.212,0.128-0.224,0.299-0.147
				c0.143,0.069,0.445,0.846,0.652,0.765c0.026-0.01-0.07-0.25-0.09-0.271c-0.402-0.437-0.646-1.577-1.141-1.514l-0.58-0.683
				l0.002,0.027c-0.106-0.4-0.448-0.959-0.69-1.097c-0.298-0.17,0.068,0.365,0.285,0.715l-0.172,0.161l-0.846-1.208l0.02,0.012
				l-0.492-0.314c-0.051-0.1-0.11-0.201-0.181-0.302l-0.009-0.004l-1.319-2.651l0.018,0.042c-0.527-1.139-1.423-1.899-1.581-1.94
				c-1.598-0.391-2.133-3.203-3.275-4.727c-0.974-1.32-1.758-3.02-1.146-3.421c0.745-0.494-1.498-3.134-2.273-4.886
				c-0.551-1.172-1.374-2.471-2.09-3.703c-0.67-1.152-0.761-1.839-0.407-1.625c1.518,0.915,1.473,0.149,0.88-1.193
				c-0.297-0.672-0.731-1.489-1.179-2.316c-0.42-0.853-0.843-1.726-1.164-2.462c-0.657-1.516-1.545-3.107-2.277-4.662
				c-0.849-1.802-0.19-1.656,0.035-1.697c1.103-0.198,1.524-1.619,2.268-2.454C26.236,472.278,26.42,472.219,26.568,472.429z
				 M116.861,617.6l-0.195-0.109l0.257,0.326L116.861,617.6z M116.32,616.755l-0.057,0.471l0.351,0.208L116.32,616.755z
				 M115.667,616.791l0.003,0.012l0.057,0.002L115.667,616.791z M109.112,606.225c-0.186-0.216-0.437-0.57-0.547-0.623
				c-0.303-0.148,0.046,0.323,0.188,0.601C108.587,605.713,109.121,606.442,109.112,606.225z M102.405,595.815l0.767,0.724
				c-0.054-0.103-0.099-0.214-0.162-0.309C102.598,595.616,102.535,595.791,102.405,595.815z M101.504,594.029l0.571,0.808
				l-0.52-0.82C101.555,594.018,101.522,594.025,101.504,594.029z M114.462,574.895l-0.103-0.355l-0.016,0.228L114.462,574.895z
				 M90.37,578.823l-0.16,0.188C90.402,579.134,90.681,579.376,90.37,578.823z M93.088,582.032
				c-0.311-0.702-0.792-1.331-1.337-1.932l0.139,1.049c1.472,1.156,0.687,1.791,1.727,2.874c0.114,0.122-0.035,0.363,0.361,0.626
				c0.109,0.073,0.106-0.099,0.154-0.159c-1.293-1.559-0.514-1.518-1.058-2.495L93.088,582.032z M89.59,578.439l0.499,0.548
				c0.01-0.02,0.032-0.021,0.065-0.006c-0.164-0.207-0.329-0.414-0.488-0.615C89.647,578.343,89.616,578.412,89.59,578.439z
				 M83.49,569.962c0.031,0.087,0.039,0.176,0.096,0.26c0.331,0.494,0.498,0.552,0.63,0.53L83.49,569.962z M71.238,553.634
				c0.469,0.5,0.751,0.929,0.745,1.25c0.456,0.366,0.551,0.206,0.566-0.07C72.13,554.469,71.508,553.54,71.238,553.634z
				 M64.244,543.008l0.063,0.071l-0.01-0.032L64.244,543.008z M79.797,525.544l-0.385-0.312l0.361,0.751l0.034,0.029l-0.052-0.069
				L79.797,525.544z M74.207,518.432l0.008,0.14l0.403,0.374L74.207,518.432z M47.258,519.828l-0.012-0.047l-0.018,0.014
				l-0.068-0.06L47.258,519.828z M63.837,503.232c0.484,0.87,0.884,1.255,1.223,1.295L63.837,503.232z M63.803,503.173l0.012,0.021
				c0.003-0.011,0.007-0.026,0.007-0.026L63.803,503.173z M63.043,501.056l0.402,0.69l0.09-0.041L63.043,501.056z M52.25,484.158
				l-0.009-0.089l-0.001,0.065L52.25,484.158z M48.767,478.78l-0.267-0.436l0.075,0.127L48.767,478.78z" />

	</g>

	<g className="page-top-markers">
		<path fill="#F9E92C" d="M738.264,114.58c3.332-0.032,6.538,0.651,9.515,1.919c2.974,1.272,5.677,3.212,8.055,5.6
				c2.25,2.255,4.466,4.826,6.728,7.257c0.659,0.708,0.93,1.774,0.185,2.106c-3.03,1.347-4.454,4.473-8.889,4.387
				c-2.995-0.059-5.814,0.427-8.674,0.854c-2.844,0.404-5.721,0.738-8.85,0.406c-0.294-0.031-0.738,0.099-0.842-0.015
				c-2.791-3-7.917-2.215-10.026-6.317c-0.37-0.718-1.099-1.53-1.968-1.489c-3.011,0.144-4.581-1.801-6.062-3.937l0.019,0.057
				c-3.772-0.457-6.86-2.414-9.943-4.983c-1.198-1.021-3.354-1.211-5.136-1.29c-2.594-0.114-4.762-1.272-6.05-3.869
				c-1.452-2.937-4.465-3.193-6.553-3.278c-4.682-0.211-5.25-3.777-7.172-6.235c-0.474-0.606-0.52-1.651-1.396-1.833
				c-2.013-0.419-3.827-0.972-4.876-3.05l0.006,0.037l-0.449-0.328l0.043-0.006c-1.639-3.839-5.974-6.25-8.001-9.911
				c-0.243-0.44-1.279-1.063-1.699-1.013c-3.147,0.384-5.287-3.225-8.32-3.638c-0.61-0.082-1.531-2.267-2.306-3.478l0.009,0.043
				c-0.832,0.102-1.658,0.428-2.525-0.583l0.001,0.046c0.076-0.653-0.444-0.549-0.816-0.634l0.058-0.009l-0.256,0.332l-0.015-0.054
				c-4.039,0.509-5.644-2.847-6.664-5.348c-1.071-2.645-3.094-3.499-4.731-3.466c-3.642,0.073-5.861-2.516-7.39-4.845
				c-1.557-2.385-3.198-2.82-5.262-3.327c-0.573-0.139-1.481-0.27-1.66-0.576c-2.697-4.715-9.383-5.814-11.348-11.141
				c-0.33-0.888-1.115-1.417-1.943-1.514c-3.212-0.378-5.119-2.321-6.398-5.182c-0.706-1.611-2.03-2.795-3.669-3.407
				c-1.57-0.586-2.748-1.568-3.467-2.963c-1.966-3.754-5.966-6.515-7.56-10.491c-0.716-1.817-2.745-1.666-4.056-2.312
				c-3.517-1.736-7.509-7.949-6.487-10.827c0.085-0.242,0.605-0.408,0.93-0.325c6.137,1.54,12.021,1.85,18.07,2.83
				c3.663,0.6,7.467,0.886,11.116,0.96c5.015,0.083,9.558,2.193,13.393,6.351c1.737,1.83,3.181,3.3,5.754,4.387
				c2.473,1.041,4.52,4.046,6.806,6.141l-0.002-0.04c0.204,0.513,0.451,1.452,0.608,1.478c3.612,0.583,4.859,3.787,5.781,5.964
				c1.475,3.418,4.042,3.516,6.295,3.975c4.337,0.886,7.014,3.57,9.267,7.027c0.391,0.605,0.687,1.251,1.383,1.373
				c3.947,0.686,5.996,3.626,8.143,6.502c0.179,0.243,0.329,0.593,0.557,0.705c5.057,2.5,7.69,7.277,11.622,10.828
				c3.512,3.217,6.507,5.975,11.567,6.476c2.926,0.295,5.444,1.775,7.749,3.643c2.317,1.85,4.407,4.111,6.425,6.014
				c2.898,2.752,5.601,3.289,8.544,4.332c1.759,0.624,3.241,1.369,4.303,2.907c1.696,2.479,4.221,3.589,6.91,4.82
				c3.077,1.4,5.166,3.819,6.12,6.927c0.747,2.426,2.912,4.051,5.555,5.028L738.264,114.58z" />

		<path fill="#E52629"
			d="M745.02,115.264c-3.971-1.782-8.059-3.738-12.293-5.738c-3.005-1.42-6.176-2.702-9.287-4.314
				c-0.622-0.329-1.18,0.453-1.594,1.376c-1.182,2.662-2.125,2.504-2.994,1.56c-0.759-0.828-1.351-1.884-2.197-2.561
				c-0.712-0.546-0.805-2.341-2.969-0.12c-0.99,0.998-1.768-0.491-2.457-1.058c-6.15-5.033-10.829-10.29-15.196-14.892
				c-1.501-1.593-3.021-3.051-4.485-4.461c-1.465-1.418-2.849-2.723-4.217-4.196c-3.003-3.197-6.793-5.794-10.601-8.696
				c-5.175-3.95-10.96-7.624-17.007-11.635c-1.79-1.192-3.84-2.077-5.758-3.171l-0.016,0.03l-0.162-0.131l0.025-0.02
				c-1.909-1.131-4.264-1.923-5.003-4.229c-0.699-2.257-2.43-3.394-3.266-5.407c-1.097-2.691-4.558-3.07-6.338-5.144
				c-1.053-1.216-2.466-2.088-3.701-3.126l0.004,0.002l-0.132-0.141c-2.984-2.311-6.199-4.41-8.644-7.121
				c-1.29-1.429-2.94-2.515-4.051-4.076c-0.898-1.269,0.078-2.804,2.076-4.762c1.536-1.505,3.145-2.976,4.766-4.427
				c0.347-0.311,0.563-0.382,0.443-0.656c-0.259-0.595-1.453-0.712-0.693-1.801c1.29-1.848,2.968-3.711,5.064-5.403
				c3.595-2.903,3.503-2.856,4.782-1.184c0.887,1.16,2.436,1.746,3.077,3.111l0.008-0.026c1.162,1.003,2.343,1.986,3.469,3.001
				c0.223,0.202,0.232,0.597,0.34,0.903l0.02-0.03l0.227,0.255l-0.03,0.01c1.839,0.38,2.305,2.028,3.649,2.844
				c0.341,0.209,0.446,0.623,1.357-0.472c0.584-0.702,0.757-0.391,0.839-0.183c0.65,1.617,2.508,2.176,2.878,4.074
				c0.091,0.469,1.122,0.826,2.045,0.845c0.194,0.005,0.481-0.051,0.527,0.079c0.488,1.367,1.63,0.558,3.396-1.539
				c0.66-0.783,1.58-1.856,1.739-0.603c0.144,1.082,1.068,1.731,1.456,2.634c0.338,0.782,1.036,1.183,1.701,1.611
				c0.671,0.412,1.309,0.85,1.546,1.747c0.437,1.589,1.934,2.242,2.802,3.44c0.47,0.664,0.634,1.679,1.92,1.321l0.019-0.032
				l0.118,0.103l-0.026,0.02c0.395,2.643,2.428,3.399,3.984,4.724c0.343,0.299,0.459,0.936,0.681,1.421l0.015-0.036
				c-0.081,0.456,0.172,0.448,0.494,0.34l-0.028,0.02l0.587,0.088c0,0,0.011-0.005,0.019-0.008c0.307,0.024,1.019-0.48,0.483,0.626
				l-0.045,0.055l0.054-0.049c0.825,0.599,2.266,0.331,2.417,1.941l0.005-0.032c1.971,0.727,3.385,2.36,5.067,3.704
				c0.562,0.448,1.083,0.931,1.643,1.408l0.021-0.015l0.556,0.041l0.022-0.016c1.034,0.092,1.519,0.92,1.615,2.28l0.019-0.032
				l1.453-0.118l-0.027,0.016l0.048,1.394l0.006-0.029l0.164,0.101l-0.023,0.02l1.53,0.584l0.061-0.032l-0.076,0.025l0.305-0.346
				l-0.03,0.015l0.369-0.237l-0.017,0.017c0.709-0.105,1.115,0.278,1.445,0.781l0.019-0.03c0.284,1.027,1.441,0.776,2.018,1.392
				c0.127,0.778,1.217,0.261,1.214,1.229l0.007-0.004l0.588,0.33l0.263-0.298l0.343,0.339l0.006-0.038l0.796-0.019
				c-0.598,1.589,0.461,1.403,0.889,1.87c0.298,0.325,0.479-1.85,0.858-0.747c0.149,0.436-0.074,1.236,0.4,1.399
				c0,0-0.048,0.099-0.082,0.138c-0.036,0.041-0.082,0.065-0.121,0.096l-0.021,0.056l0.046-0.062c0.142,0.619,0.7,0.6,1.309,0.37
				c1.111-0.424,1.941-0.482,1.757,0.965l0.004-0.03c0.243,1.159,0.953,1.71,1.989,1.879l-0.03,0.012l0.349-0.028l-0.092-0.265
				c0.539-0.261-0.124-0.99,0.516-0.885c0.315,0.052,0.401,0.638,0.936,0.534c-0.719,1.726,1.061,0.631,1.143,1.44
				c0.013,0.13,0.066,0.23,0.101,0.344c-0.075,0.02-0.179,0.079-0.221,0.055c-0.198-0.116-0.519-0.323-0.745,0.151
				c-0.213,0.447,0.182,0.535,0.674,0.372c0.364-0.121,0.643,0.029,0.953,0.067l0.185-0.226c0.526,0.052,0.705,0.409,0.889,0.932
				c0.447,1.246,1.585,1.668,3.236,1.308c0.428-0.097,0.016,0.228,0.005,0.351c-0.065,0.675-0.174,1.22,0.876,0.818
				c0.859-0.323,1.332,0.25,0.899,1.481c1.444-0.687,1.282,0.634,1.852,1.007l-0.03,0.011c1.192,1.017,2.391,1.933,3.449,2.968
				c0.351,0.346,0.98,0.026,1.55-0.121c-0.555,0.906-0.591,1.323,0.285,0.855l0.009-0.031c-0.311,1.717,1.149,1.398,1.727,2.057
				c0.691,0.781,1.823,0.997,2.738,1.408l0.003,0.029c0.75,0.081,0.92,1.011,1.997,0.54l0.038-0.024l-0.064,0.051
				c0.269,0.289,1.048-0.061,0.461,1.267c0.554-0.066,1.511-0.798,0.932,0.759c0.494,0.302,1.489-0.258,1.525,0.783l0.02-0.027
				c1.287,0.565,2.962,0.495,3.858,1.795c0.537,0.797,2.408,0.566,0.579,4.814c-0.359,0.827-0.122,1.003,0.098,1.143
				c0.945,0.602,1.871,1.334,2.973,1.658c0.704,0.211,0.841,0.946,0.15,2.388c-2.024,4.198-0.996,5.172,0.276,5.998
				c2.001,1.305,4.036,2.622,6.116,3.868c0.434,0.261,0.888,0.554,1.573-0.114l0.007,0.01c-0.099,0.728,0.004,1.294,0.336,1.315
				c1.5,0.094,1.009,2.002,0.21,4.348c-0.804,2.361-1.571,4.743-2.266,7.123C746.697,115.025,745.931,115.672,745.02,115.264z
				 M694.524,52.281l0.008-0.003l0.14-0.218L694.524,52.281z M698.828,54.778l0.009-0.236l-0.107,0.278L698.828,54.778z
				 M707.931,60.461l0.112-0.198l-0.403,0.087L707.931,60.461z M710.806,62.507l0.049-0.259l-0.144,0.277L710.806,62.507z
				 M716.846,66.497l-0.043,0.113l0.029-0.041C716.846,66.544,716.842,66.521,716.846,66.497z M728.751,75.208l-0.192-0.182
				l0.032,0.365L728.751,75.208z M730.805,76.408l0.172,0.407l-0.088-0.516C730.859,76.337,730.808,76.404,730.805,76.408z" />
	</g>
</svg>